<svg width="30" height="24" viewBox="0 0 30 24" fill="none" xmlns="http://www.w3.org/2000/svg" class="w-[24px] h-[30px]">
    <path d="M21.4935 16.93L25.4618 21.3923H21.5512L19.6557 19.2702L19.5291 19.1295L21.4935 16.93ZM8.53042 16.9329L10.4723 19.1253L10.3302 19.2843L8.44739 21.3923H4.54806L8.5276 16.9343M21.4977 13.868L14.9923 21.153L8.53605 13.868L0 23.4285H9.36066L11.85 20.6394L14.3407 23.4285H15.6762L18.1359 20.6267L20.6379 23.4285H29.9986L21.4963 13.868H21.4977Z" fill="url(#paint0_linear_3150_1624)"></path>
    <path d="M25.4519 2.3572L15.0063 14.0637L4.54946 2.36142L8.43754 2.35861L13.4809 8.00568L15.0021 9.7098L16.5219 8.00427L21.5498 2.35861H25.4519M9.348 0.31958L0 0.328023L15.0063 17.1229L30 0.31958H20.6351L14.9993 6.64774L9.348 0.31958Z" fill="url(#paint1_linear_3150_1624)"></path>
    <defs>
        <linearGradient id="paint0_linear_3150_1624" x1="14.9993" y1="13.868" x2="14.9993" y2="23.4285" gradientUnits="userSpaceOnUse">
            <stop stop-color="#70B1FF"></stop>
            <stop offset="1" stop-color="#1D6CFF"></stop>
        </linearGradient>
        <linearGradient id="paint1_linear_3150_1624" x1="15" y1="0.31958" x2="15" y2="17.1229" gradientUnits="userSpaceOnUse">
            <stop stop-color="#70B1FF"></stop>
            <stop offset="1" stop-color="#1D6CFF"></stop>
        </linearGradient>
    </defs>
</svg>